# xmcd
#
# Track frame offsets:
#	150
#	11734
#	23945
#	35145
#	50428
#	62774
#	75023
#	87122
#	100841
#	114695
#	128449
#	140416
#	156813
#	169288
#	180600
#	196725
#	212004
#	225517
#	237330
#	251658
#	267898
#	280457
#
# Disc length: 3929 seconds
#
# Revision: 0
# Processed by: cddbd v1.5.2PL0 Copyright (c) Steve Scherf et al.
# Submitted via: EasyCDDAExtractor 8.2.3.1
#
DISCID=270f5716
DTITLE=Raridades Caipira - Volume 3
DYEAR=1900
DGENRE=Sertanejo
TTITLE0=Nana nenê
TTITLE1=Mariazinha
TTITLE2=Mara
TTITLE3=Linda uruguaia
TTITLE4=Liezé
TTITLE5=A morte do doutor Laureano
TTITLE6=A morte de Francisco Alves
TTITLE7=A última trucada
TTITLE8=Besta baia
TTITLE9=Boi vermelho
TTITLE10=Cabeça a cabeça
TTITLE11=Cachorro maiado
TTITLE12=Cadê a rosa
TTITLE13=Cana caiana
TTITLE14=Condenado
TTITLE15=Doutor promessa
TTITLE16=Fecha a roda
TTITLE17=Filão de ouro
TTITLE18=Filho de mato
TTITLE19=Flor do lodo
TTITLE20=Flor cobiçada
TTITLE21=Galo sansão
EXTD=
EXTT0=
EXTT1=
EXTT2=
EXTT3=
EXTT4=
EXTT5=
EXTT6=
EXTT7=
EXTT8=
EXTT9=
EXTT10=
EXTT11=
EXTT12=
EXTT13=
EXTT14=
EXTT15=
EXTT16=
EXTT17=
EXTT18=
EXTT19=
EXTT20=
EXTT21=
PLAYORDER=
